# xmcd CD database file
#
# Track frame offsets:
#	150
#	12510
#	45730
#	58715
#	69312
#	108572
#	130112
#	162150
#
# Disc length: 2707 seconds
#
# Revision: 6
# Processed by: cddbd v1.5.2PL0 Copyright (c) Steve Scherf et al.
# Submitted via: CDex 1.70beta2
#
DISCID=680a9108
DTITLE=Emerson, Lake and Palmer - Brain Salad Surgery
DYEAR=1973
DGENRE=Progressive Rock
TTITLE0=Jerusalem
TTITLE1=Toccata (An Adaptation Of Ginastera's 1st Piano Concerto, 4th Movement)
TTITLE2=Still...You Turn Me On
TTITLE3=Benny The Bouncer
TTITLE4=Karn Evil 9: 1st Impression - Part 1
TTITLE5=Karn Evil 9: 1st Impression - Part 2
TTITLE6=Karn Evil 9: 2nd Impression
TTITLE7=Karn Evil 9: 3rd Impression
EXTD=Produced by Greg Lake at Advision Studios YEAR: 1973
EXTT0=
EXTT1=(An Adaptation Of Ginastera's 1St Piano Concerto, 4Th Movement)
EXTT2=
EXTT3=
EXTT4=
EXTT5=
EXTT6=
EXTT7=
PLAYORDER=
